<?xml version="1.0" standalone="no"?>
<!DOCTYPE svg PUBLIC "-//W3C//DTD SVG 20010904//EN"
 "http://www.w3.org/TR/2001/REC-SVG-20010904/DTD/svg10.dtd">
<svg version="1.0" xmlns="http://www.w3.org/2000/svg"
 width="512.000000pt" height="512.000000pt" viewBox="0 0 512.000000 512.000000"
 preserveAspectRatio="xMidYMid meet">
<metadata>
Created by potrace 1.14, written by Peter Selinger 2001-2017
</metadata>
<g transform="translate(0.000000,512.000000) scale(0.100000,-0.100000)"
fill="#000000" stroke="none">
<path d="M3118 4815 c-2 -1 -37 -5 -78 -9 -41 -3 -88 -8 -105 -11 -35 -6 -96
-17 -110 -21 -5 -1 -24 -5 -41 -8 -53 -10 -218 -68 -241 -85 -56 -41 -53 -129
6 -164 40 -24 58 -22 174 17 56 19 117 37 135 40 17 3 44 8 60 11 146 28 375
27 507 0 44 -9 90 -18 101 -20 36 -5 175 -55 249 -89 495 -228 824 -732 829
-1271 1 -170 -7 -248 -40 -377 -61 -242 -180 -459 -352 -639 -131 -138 -245
-221 -415 -304 -62 -30 -121 -63 -129 -72 -55 -64 -8 -165 77 -165 40 0 211
82 320 153 416 271 676 696 740 1209 7 53 7 269 0 320 -29 230 -71 379 -155
555 -194 401 -533 698 -967 846 -72 24 -118 35 -268 64 -16 4 -79 8 -140 11
-60 3 -120 6 -132 8 -13 2 -24 2 -25 1z"/>
<path d="M3097 4404 c-1 -1 -31 -5 -67 -8 -251 -26 -509 -150 -703 -336 -117
-112 -121 -84 72 -475 89 -180 160 -329 158 -331 -2 -2 -25 -15 -53 -30 -27
-14 -85 -45 -129 -69 -189 -101 -294 -150 -341 -160 -37 -8 -72 -15 -101 -20
-38 -7 -191 -7 -228 0 -134 25 -198 53 -450 196 -83 47 -168 90 -190 95 -87
22 -187 -3 -259 -66 -61 -54 -84 -111 -106 -272 -6 -40 -13 -84 -15 -98 -2
-14 -9 -56 -15 -95 -6 -38 -13 -81 -15 -95 -4 -26 -21 -134 -86 -550 -49 -312
-50 -318 -55 -343 -2 -11 -8 -57 -15 -101 -6 -44 -12 -83 -14 -86 -1 -3 -6
-32 -9 -65 -4 -33 -9 -67 -11 -75 -5 -17 -11 -55 -20 -120 -3 -25 -15 -97 -25
-160 -11 -63 -22 -137 -25 -165 -4 -27 -8 -57 -10 -65 -2 -8 -16 -91 -30 -185
-14 -93 -28 -181 -31 -195 -2 -14 -7 -55 -11 -92 -6 -66 -5 -68 27 -98 44 -42
100 -42 141 -1 16 16 29 38 30 48 0 10 2 29 5 43 2 14 11 70 20 125 8 55 17
111 20 125 2 14 6 43 9 65 3 22 7 51 10 65 3 14 8 41 11 60 14 95 38 247 55
350 10 63 21 133 24 155 2 22 7 51 9 65 3 14 8 43 11 65 15 99 46 302 50 320
3 11 7 38 10 60 3 22 10 65 15 95 5 30 12 75 15 100 3 25 12 83 20 130 8 47
17 108 21 135 3 28 8 59 10 70 2 11 23 137 45 280 23 143 42 267 44 275 2 8 4
24 4 36 1 31 38 64 71 64 19 0 93 -36 207 -102 290 -165 406 -202 628 -202
107 0 158 6 245 29 62 16 204 70 225 85 6 4 60 34 120 65 61 32 139 73 174 92
35 19 65 33 66 31 6 -6 134 -272 132 -273 -1 -1 -22 -13 -47 -27 -25 -14 -76
-42 -115 -63 -38 -21 -83 -46 -100 -55 -33 -19 -95 -53 -230 -125 -49 -27
-112 -61 -138 -77 -26 -15 -49 -28 -51 -28 -16 0 -298 -168 -357 -212 -195
-148 -355 -365 -442 -603 -61 -166 -133 -415 -172 -595 -2 -8 -15 -68 -29
-132 -24 -110 -70 -370 -80 -448 -13 -113 119 -173 180 -82 20 30 26 51 40
162 12 95 85 447 125 603 82 324 164 538 260 678 56 83 167 198 248 258 61 45
319 191 736 416 39 21 86 47 105 58 101 59 159 86 164 78 3 -5 49 -96 102
-202 212 -430 205 -417 241 -434 34 -16 51 -16 178 6 376 66 720 336 889 700
254 548 56 1213 -459 1541 -68 44 -217 118 -236 118 -5 0 -17 4 -27 9 -19 10
-120 38 -167 45 -97 15 -139 19 -218 21 -48 0 -89 0 -90 -1z m288 -224 c412
-100 706 -392 791 -784 22 -98 26 -293 9 -387 -24 -137 -109 -347 -165 -407
-9 -9 -23 -28 -33 -42 -38 -55 -157 -165 -233 -216 -99 -66 -185 -106 -300
-139 -133 -39 -123 -44 -192 98 -33 67 -216 437 -407 822 -191 385 -355 719
-365 741 l-18 41 40 34 c220 184 429 261 693 255 72 -2 153 -9 180 -16z"/>
</g>
</svg>
