<?xml version="1.0" encoding="UTF-8" standalone="no"?><!DOCTYPE svg PUBLIC "-//W3C//DTD SVG 1.1//EN" "http://www.w3.org/Graphics/SVG/1.1/DTD/svg11.dtd"><svg width="100" height="100" viewBox="0 0 209 209" version="1.1" xmlns="http://www.w3.org/2000/svg" xmlns:xlink="http://www.w3.org/1999/xlink" xml:space="preserve" xmlns:serif="http://www.serif.com/" style="fill-rule:evenodd;clip-rule:evenodd;"><g id="SVGRepo_bgCarrier"><path d="M208.333,104.167c0,-57.491 -46.675,-104.167 -104.166,-104.167c-57.491,0 -104.167,46.676 -104.167,104.167c0,57.491 46.676,104.166 104.167,104.166c57.491,0 104.166,-46.675 104.166,-104.166Z" style="fill:#3155e7;"/></g><g id="SVGRepo_iconCarrier"><g><g><g><path d="M165.264,41.08l-122.195,-0c-4.603,-0 -8.346,3.744 -8.346,8.346l-0,109.479c-0,4.603 3.743,8.347 8.346,8.347l122.195,-0c4.602,-0 8.345,-3.744 8.345,-8.347l-0,-109.479c0.001,-4.602 -3.744,-8.346 -8.345,-8.346Zm-25.165,14.015c-0,-1.702 1.38,-3.082 3.081,-3.082l3.082,0c1.703,0 3.082,1.38 3.082,3.082l-0,3.493c-0,1.702 -1.38,3.082 -3.082,3.082l-3.082,-0c-1.701,-0 -3.081,-1.38 -3.081,-3.082l-0,-3.493Zm-14.331,0c0,-1.702 1.381,-3.082 3.082,-3.082l3.081,0c1.702,0 3.082,1.38 3.082,3.082l0,3.493c0,1.702 -1.38,3.082 -3.082,3.082l-3.081,-0c-1.701,-0 -3.082,-1.38 -3.082,-3.082l0,-3.493Zm37.825,102.141l-118.855,-0l0,-86.308l118.855,-0l0,86.308Zm0.081,-98.648c0,1.702 -1.379,3.082 -3.081,3.082l-3.082,-0c-1.703,-0 -3.082,-1.38 -3.082,-3.082l0,-3.493c0,-1.702 1.38,-3.082 3.082,-3.082l3.082,0c1.702,0 3.081,1.38 3.081,3.082l0,3.493Z" style="fill:#fff;fill-rule:nonzero;stroke:#fff;stroke-width:0.26px;"/><path d="M64.536,117.337l22.34,10.388c0.577,0.268 1.192,0.403 1.828,0.403c0.828,0 1.635,-0.235 2.336,-0.681c1.256,-0.803 2.007,-2.171 2.007,-3.66l-0,-0.114c-0,-1.682 -0.986,-3.228 -2.513,-3.937l-13.972,-6.492l13.972,-6.493c1.527,-0.709 2.513,-2.254 2.513,-3.936l-0,-0.113c-0,-1.491 -0.751,-2.86 -2.007,-3.66c-0.694,-0.444 -1.503,-0.679 -2.339,-0.679c-0.63,0 -1.261,0.139 -1.827,0.402l-22.339,10.388c-1.525,0.709 -2.511,2.255 -2.511,3.936l0,0.311c0,1.679 0.985,3.224 2.512,3.937Z" style="fill:#fff;fill-rule:nonzero;stroke:#fff;stroke-width:0.26px;"/><path d="M93.246,138.497c0.815,1.115 2.125,1.781 3.506,1.781l0.112,0c1.895,0 3.556,-1.213 4.133,-3.016l14.716,-45.599c0.422,-1.316 0.188,-2.768 -0.627,-3.886c-0.815,-1.115 -2.125,-1.781 -3.506,-1.781l-0.112,0c-1.896,0 -3.558,1.213 -4.136,3.016l-14.717,45.602c-0.419,1.318 -0.183,2.768 0.631,3.883Z" style="fill:#fff;fill-rule:nonzero;stroke:#fff;stroke-width:0.26px;"/><path d="M115.285,102.814c-0,1.681 0.985,3.226 2.512,3.939l13.973,6.491l-13.973,6.491c-1.526,0.71 -2.512,2.256 -2.512,3.938l-0,0.114c-0,1.489 0.749,2.857 2.007,3.66c0.699,0.446 1.506,0.681 2.335,0.681c0.635,0 1.25,-0.135 1.831,-0.404l22.339,-10.389c1.525,-0.711 2.511,-2.256 2.511,-3.936l-0,-0.31c-0,-1.682 -0.986,-3.228 -2.512,-3.937l-22.339,-10.388c-0.564,-0.262 -1.195,-0.401 -1.825,-0.401c-0.834,0 -1.644,0.235 -2.338,0.678c-1.258,0.801 -2.008,2.169 -2.008,3.66l-0,0.113l-0.001,-0l-0,0Z" style="fill:#fff;fill-rule:nonzero;stroke:#fff;stroke-width:0.26px;"/></g></g></g></g></svg>