<?xml version="1.0" encoding="UTF-8" standalone="no"?><!DOCTYPE svg PUBLIC "-//W3C//DTD SVG 1.1//EN" "http://www.w3.org/Graphics/SVG/1.1/DTD/svg11.dtd"><svg width="100%" height="100%" viewBox="0 0 509 117" version="1.1" xmlns="http://www.w3.org/2000/svg" xmlns:xlink="http://www.w3.org/1999/xlink" xml:space="preserve" xmlns:serif="http://www.serif.com/" style="fill-rule:evenodd;clip-rule:evenodd;stroke-linejoin:round;stroke-miterlimit:2;"><g><path d="M68.714,6.266c-0.049,0.025 -0.905,0.122 -1.909,0.22c-1.003,0.074 -2.153,0.196 -2.569,0.27c-0.857,0.146 -2.35,0.416 -2.692,0.513c-0.123,0.025 -0.588,0.123 -1.004,0.196c-1.297,0.245 -5.334,1.664 -5.897,2.08c-1.371,1.004 -1.297,3.157 0.147,4.014c0.978,0.587 1.419,0.538 4.258,-0.416c1.37,-0.465 2.863,-0.906 3.303,-0.979c0.416,-0.074 1.077,-0.196 1.469,-0.269c3.573,-0.686 9.177,-0.661 12.407,-0c1.077,0.22 2.202,0.44 2.472,0.489c0.881,0.122 4.282,1.346 6.093,2.178c12.114,5.58 20.165,17.914 20.287,31.104c0.025,4.16 -0.171,6.069 -0.978,9.226c-1.493,5.922 -4.405,11.233 -8.615,15.637c-3.205,3.378 -5.995,5.409 -10.155,7.44c-1.518,0.734 -2.962,1.542 -3.157,1.762c-1.346,1.566 -0.196,4.038 1.884,4.038c0.979,-0 5.164,-2.007 7.831,-3.744c10.18,-6.632 16.543,-17.033 18.109,-29.587c0.172,-1.297 0.172,-6.583 0,-7.831c-0.709,-5.629 -1.737,-9.275 -3.793,-13.582c-4.747,-9.813 -13.043,-17.081 -23.664,-20.703c-1.762,-0.588 -2.888,-0.857 -6.559,-1.566c-0.391,-0.098 -1.933,-0.196 -3.426,-0.27c-1.468,-0.073 -2.936,-0.147 -3.23,-0.195c-0.318,-0.049 -0.587,-0.049 -0.612,-0.025Z" style="fill-rule:nonzero;stroke:#000;stroke-width:2.08px;"/><path d="M68.2,16.324c-0.024,0.025 -0.758,0.122 -1.639,0.196c-6.143,0.636 -12.457,3.671 -17.204,8.222c-2.863,2.741 -2.961,2.056 1.762,11.625c2.178,4.405 3.915,8.051 3.866,8.1c-0.049,0.049 -0.611,0.367 -1.297,0.734c-0.66,0.343 -2.08,1.101 -3.157,1.689c-4.625,2.471 -7.194,3.67 -8.345,3.915c-0.905,0.196 -1.761,0.367 -2.471,0.49c-0.93,0.171 -4.674,0.171 -5.58,-0c-3.279,-0.612 -4.845,-1.297 -11.012,-4.797c-2.031,-1.15 -4.111,-2.202 -4.65,-2.325c-2.129,-0.538 -4.576,0.074 -6.338,1.615c-1.493,1.322 -2.056,2.717 -2.594,6.657c-0.147,0.979 -0.318,2.055 -0.367,2.398c-0.049,0.343 -0.22,1.37 -0.367,2.325c-0.147,0.93 -0.318,1.982 -0.367,2.325c-0.098,0.636 -0.514,3.279 -2.105,13.459c-1.199,7.635 -1.224,7.782 -1.346,8.394c-0.049,0.269 -0.196,1.395 -0.367,2.472c-0.147,1.077 -0.294,2.031 -0.343,2.104c-0.024,0.074 -0.146,0.783 -0.22,1.591c-0.098,0.808 -0.22,1.64 -0.269,1.835c-0.122,0.416 -0.269,1.346 -0.489,2.937c-0.074,0.612 -0.368,2.374 -0.612,3.916c-0.269,1.541 -0.539,3.352 -0.612,4.037c-0.098,0.661 -0.196,1.395 -0.245,1.591c-0.049,0.196 -0.391,2.227 -0.734,4.527c-0.343,2.276 -0.685,4.43 -0.759,4.773c-0.049,0.342 -0.171,1.345 -0.269,2.251c-0.147,1.615 -0.122,1.664 0.661,2.398c1.077,1.028 2.447,1.028 3.451,0.025c0.391,-0.392 0.709,-0.93 0.734,-1.175c-0,-0.245 0.049,-0.71 0.122,-1.052c0.049,-0.343 0.269,-1.713 0.489,-3.059c0.196,-1.346 0.416,-2.717 0.49,-3.059c0.049,-0.343 0.147,-1.053 0.22,-1.591c0.074,-0.538 0.171,-1.248 0.245,-1.591c0.073,-0.342 0.196,-1.003 0.269,-1.468c0.343,-2.325 0.93,-6.045 1.346,-8.565c0.245,-1.542 0.514,-3.255 0.587,-3.793c0.049,-0.539 0.172,-1.248 0.221,-1.591c0.073,-0.343 0.195,-1.052 0.269,-1.591c0.367,-2.422 1.125,-7.39 1.223,-7.831c0.074,-0.269 0.172,-0.93 0.245,-1.468c0.074,-0.538 0.245,-1.591 0.367,-2.325c0.123,-0.734 0.294,-1.835 0.367,-2.447c0.074,-0.612 0.294,-2.031 0.49,-3.181c0.195,-1.151 0.416,-2.643 0.514,-3.304c0.073,-0.685 0.195,-1.444 0.244,-1.713c0.049,-0.269 0.563,-3.353 1.102,-6.852c0.562,-3.5 1.027,-6.534 1.076,-6.73c0.049,-0.196 0.098,-0.587 0.098,-0.881c0.025,-0.759 0.93,-1.566 1.738,-1.566c0.465,-0 2.276,0.881 5.065,2.496c7.097,4.038 9.936,4.943 15.369,4.943c2.618,0 3.866,-0.147 5.995,-0.71c1.518,-0.391 4.993,-1.713 5.507,-2.08c0.147,-0.098 1.468,-0.832 2.936,-1.59c1.493,-0.783 3.402,-1.787 4.258,-2.252c0.857,-0.465 1.591,-0.807 1.616,-0.758c0.146,0.146 3.279,6.656 3.23,6.68c-0.025,0.025 -0.538,0.319 -1.15,0.661c-0.612,0.343 -1.86,1.028 -2.815,1.542c-0.93,0.514 -2.031,1.126 -2.447,1.346c-0.807,0.465 -2.325,1.297 -5.628,3.059c-1.199,0.661 -2.741,1.493 -3.377,1.884c-0.637,0.367 -1.2,0.685 -1.249,0.685c-0.391,0 -7.292,4.112 -8.736,5.189c-4.772,3.621 -8.688,8.932 -10.817,14.756c-1.492,4.062 -3.254,10.156 -4.209,14.561c-0.049,0.196 -0.367,1.664 -0.71,3.23c-0.587,2.692 -1.713,9.055 -1.957,10.964c-0.318,2.765 2.912,4.233 4.405,2.006c0.489,-0.734 0.636,-1.248 0.979,-3.964c0.293,-2.325 2.08,-10.939 3.059,-14.757c2.006,-7.929 4.013,-13.166 6.362,-16.592c1.371,-2.031 4.087,-4.845 6.069,-6.313c1.493,-1.102 7.807,-4.675 18.012,-10.181c0.954,-0.514 2.104,-1.15 2.569,-1.419c2.472,-1.444 3.891,-2.105 4.014,-1.909c0.073,0.122 1.199,2.349 2.496,4.943c5.188,10.523 5.017,10.205 5.898,10.621c0.832,0.392 1.248,0.392 4.356,-0.147c9.201,-1.615 17.619,-8.222 21.755,-17.13c6.216,-13.411 1.371,-29.685 -11.232,-37.711c-1.665,-1.077 -5.311,-2.888 -5.776,-2.888c-0.122,-0 -0.416,-0.098 -0.661,-0.22c-0.465,-0.245 -2.936,-0.93 -4.086,-1.102c-2.374,-0.367 -3.402,-0.464 -5.335,-0.513c-1.175,-0 -2.178,-0 -2.203,0.024Zm7.048,5.482c10.083,2.447 17.277,9.593 19.357,19.186c0.539,2.398 0.637,7.17 0.221,9.47c-0.588,3.353 -2.668,8.492 -4.038,9.961c-0.22,0.22 -0.563,0.685 -0.808,1.027c-0.93,1.346 -3.842,4.038 -5.702,5.286c-2.422,1.615 -4.527,2.594 -7.341,3.402c-3.255,0.954 -3.01,1.077 -4.699,-2.398c-0.807,-1.64 -5.286,-10.695 -9.96,-20.116c-4.674,-9.422 -8.688,-17.596 -8.932,-18.134l-0.441,-1.003l0.979,-0.832c5.384,-4.503 10.499,-6.388 16.959,-6.241c1.762,0.049 3.744,0.22 4.405,0.392Z" style="fill-rule:nonzero;stroke:#000;stroke-width:2.08px;"/><path d="M202.227,25.24l-34.201,-0l0,17.613l31.491,-0c2.318,-0 4.048,0.497 5.189,1.492c1.142,0.995 1.713,2.308 1.713,3.938c0,1.631 -0.562,2.96 -1.687,3.988c-1.125,1.027 -2.863,1.541 -5.215,1.541l-31.491,-0l0,20.401l35.377,0c2.385,0 4.183,0.53 5.393,1.59c1.21,1.061 1.815,2.471 1.815,4.232c0,1.697 -0.605,3.075 -1.815,4.135c-1.21,1.06 -3.008,1.59 -5.393,1.59l-41.256,-0c-3.306,-0 -5.683,-0.702 -7.131,-2.104c-1.449,-1.403 -2.173,-3.669 -2.173,-6.801l-0,-53.915c-0,-2.087 0.324,-3.791 0.971,-5.112c0.648,-1.321 1.662,-2.283 3.042,-2.887c1.38,-0.603 3.144,-0.905 5.291,-0.905l40.08,0c2.42,0 4.218,0.514 5.393,1.541c1.176,1.028 1.764,2.373 1.764,4.036c0,1.697 -0.588,3.058 -1.764,4.086c-1.175,1.027 -2.973,1.541 -5.393,1.541Z" style="fill-rule:nonzero;"/><path d="M251.969,81.454l-10.122,-14.237l-10.378,14.237c-1.5,1.99 -2.769,3.409 -3.809,4.257c-1.039,0.848 -2.36,1.272 -3.962,1.272c-1.772,-0 -3.28,-0.53 -4.524,-1.59c-1.244,-1.06 -1.866,-2.275 -1.866,-3.645c0,-1.403 0.954,-3.409 2.863,-6.018l12.627,-17.319l-11.196,-14.433c-1.942,-2.381 -2.914,-4.452 -2.914,-6.213c0,-1.37 0.58,-2.561 1.739,-3.572c1.158,-1.011 2.675,-1.517 4.549,-1.517c1.636,0 2.991,0.441 4.065,1.321c1.073,0.881 2.326,2.267 3.757,4.159l9.049,11.84l8.793,-11.84c1.465,-1.957 2.735,-3.36 3.808,-4.208c1.074,-0.848 2.412,-1.272 4.014,-1.272c1.84,0 3.365,0.498 4.575,1.493c1.21,0.994 1.815,2.193 1.815,3.596c-0,1.011 -0.247,1.981 -0.741,2.911c-0.495,0.929 -1.253,2.03 -2.275,3.302l-11.196,14.433l12.627,17.319c1.977,2.707 2.965,4.746 2.965,6.116c0,1.402 -0.613,2.609 -1.84,3.62c-1.227,1.011 -2.744,1.517 -4.55,1.517c-1.602,-0 -2.957,-0.441 -4.064,-1.321c-1.108,-0.881 -2.378,-2.283 -3.809,-4.208Z" style="fill-rule:nonzero;"/><path d="M297.621,55.084l-5.317,-0l0,23.043c0,3.034 -0.698,5.268 -2.096,6.703c-1.397,1.435 -3.22,2.153 -5.47,2.153c-2.419,-0 -4.294,-0.75 -5.623,-2.251c-1.329,-1.5 -1.994,-3.702 -1.994,-6.605l0,-55.187c0,-3.131 0.733,-5.398 2.198,-6.8c1.466,-1.403 3.835,-2.104 7.106,-2.104l24.692,0c3.409,0 6.323,0.139 8.742,0.416c2.42,0.277 4.601,0.84 6.544,1.688c2.352,0.946 4.431,2.299 6.237,4.061c1.806,1.761 3.178,3.808 4.115,6.14c0.938,2.332 1.406,4.802 1.406,7.412c0,5.349 -1.576,9.622 -4.729,12.818c-3.152,3.196 -7.932,5.463 -14.339,6.801c2.692,1.369 5.265,3.392 7.719,6.066c2.454,2.675 4.644,5.521 6.569,8.538c1.926,3.017 3.425,5.74 4.499,8.17c1.074,2.43 1.61,4.101 1.61,5.015c0,0.946 -0.315,1.883 -0.945,2.813c-0.631,0.929 -1.491,1.663 -2.582,2.202c-1.091,0.538 -2.352,0.807 -3.783,0.807c-1.704,-0 -3.136,-0.383 -4.294,-1.15c-1.159,-0.766 -2.156,-1.737 -2.991,-2.911c-0.835,-1.174 -1.968,-2.903 -3.4,-5.186l-6.083,-9.687c-2.181,-3.555 -4.133,-6.262 -5.854,-8.122c-1.721,-1.859 -3.468,-3.131 -5.24,-3.816c-1.772,-0.685 -4.004,-1.027 -6.697,-1.027Zm8.691,-30.138l-14.008,0l0,19.717l13.599,-0c3.647,-0 6.714,-0.302 9.202,-0.905c2.488,-0.604 4.388,-1.631 5.7,-3.082c1.312,-1.452 1.968,-3.45 1.968,-5.994c0,-1.989 -0.528,-3.742 -1.584,-5.259c-1.057,-1.517 -2.522,-2.65 -4.397,-3.4c-1.772,-0.718 -5.266,-1.077 -10.48,-1.077Z" style="fill-rule:nonzero;"/><path d="M387.903,63.108l-27.299,-0c0.034,3.033 0.673,5.707 1.917,8.023c1.244,2.316 2.897,4.061 4.959,5.235c2.062,1.174 4.337,1.761 6.825,1.761c1.67,0 3.195,-0.187 4.575,-0.562c1.38,-0.375 2.718,-0.962 4.013,-1.762c1.295,-0.799 2.488,-1.655 3.579,-2.568c1.09,-0.913 2.505,-2.153 4.243,-3.718c0.716,-0.587 1.738,-0.881 3.067,-0.881c1.432,0 2.59,0.375 3.477,1.125c0.886,0.75 1.329,1.81 1.329,3.18c-0,1.207 -0.494,2.618 -1.483,4.232c-0.988,1.615 -2.479,3.164 -4.473,4.648c-1.994,1.484 -4.499,2.716 -7.515,3.694c-3.016,0.979 -6.484,1.468 -10.403,1.468c-8.964,-0 -15.933,-2.446 -20.909,-7.339c-4.976,-4.892 -7.464,-11.53 -7.464,-19.912c-0,-3.947 0.613,-7.608 1.84,-10.984c1.227,-3.376 3.016,-6.27 5.368,-8.684c2.352,-2.414 5.249,-4.265 8.691,-5.553c3.442,-1.288 7.259,-1.932 11.451,-1.932c5.453,-0 10.131,1.1 14.033,3.302c3.903,2.202 6.825,5.047 8.768,8.537c1.942,3.49 2.914,7.045 2.914,10.666c-0,3.359 -1.006,5.537 -3.017,6.531c-2.01,0.995 -4.839,1.493 -8.486,1.493Zm-27.299,-7.584l25.305,0c-0.34,-4.566 -1.627,-7.983 -3.859,-10.25c-2.233,-2.266 -5.172,-3.4 -8.819,-3.4c-3.476,0 -6.331,1.15 -8.563,3.449c-2.232,2.3 -3.587,5.7 -4.064,10.201Z" style="fill-rule:nonzero;"/><path d="M461.11,42.461l0,38.798c0,4.435 -0.494,8.252 -1.482,11.448c-0.989,3.196 -2.573,5.838 -4.755,7.926c-2.181,2.087 -5.035,3.637 -8.563,4.648c-3.527,1.011 -7.915,1.516 -13.164,1.516c-4.805,0 -9.099,-0.644 -12.882,-1.932c-3.783,-1.289 -6.697,-2.952 -8.742,-4.991c-2.045,-2.038 -3.068,-4.134 -3.068,-6.286c0,-1.631 0.58,-2.96 1.739,-3.988c1.158,-1.027 2.556,-1.541 4.192,-1.541c2.044,0 3.834,0.864 5.367,2.593c0.75,0.881 1.526,1.77 2.326,2.667c0.801,0.896 1.687,1.663 2.659,2.299c0.971,0.636 2.138,1.109 3.502,1.419c1.363,0.31 2.931,0.465 4.703,0.465c3.613,-0 6.416,-0.482 8.41,-1.444c1.993,-0.962 3.391,-2.307 4.192,-4.036c0.801,-1.729 1.269,-3.58 1.405,-5.553c0.137,-1.973 0.239,-5.145 0.307,-9.516c-2.147,2.87 -4.626,5.056 -7.438,6.556c-2.812,1.5 -6.16,2.251 -10.046,2.251c-4.669,-0 -8.75,-1.142 -12.243,-3.425c-3.494,-2.283 -6.178,-5.48 -8.052,-9.589c-1.875,-4.11 -2.812,-8.856 -2.812,-14.237c0,-4.012 0.571,-7.633 1.713,-10.862c1.141,-3.229 2.769,-5.952 4.882,-8.17c2.113,-2.218 4.55,-3.89 7.31,-5.015c2.761,-1.125 5.794,-1.688 9.1,-1.688c3.954,0 7.379,0.726 10.276,2.177c2.897,1.452 5.589,3.727 8.077,6.825l0,-1.81c0,-2.316 0.596,-4.11 1.789,-5.382c1.193,-1.272 2.727,-1.908 4.601,-1.908c2.693,0 4.482,0.84 5.368,2.52c0.886,1.68 1.329,4.102 1.329,7.265Zm-40.437,16.928c-0,5.415 1.235,9.508 3.706,12.28c2.471,2.773 5.666,4.159 9.585,4.159c2.318,-0 4.508,-0.595 6.57,-1.786c2.062,-1.19 3.74,-2.984 5.035,-5.382c1.295,-2.397 1.943,-5.308 1.943,-8.733c-0,-5.447 -1.253,-9.687 -3.758,-12.72c-2.505,-3.033 -5.802,-4.55 -9.892,-4.55c-3.987,0 -7.183,1.451 -9.585,4.354c-2.403,2.903 -3.604,7.029 -3.604,12.378Z" style="fill-rule:nonzero;"/></g></svg>