<?xml version="1.0" encoding="UTF-8" standalone="no"?><!DOCTYPE svg PUBLIC "-//W3C//DTD SVG 1.1//EN" "http://www.w3.org/Graphics/SVG/1.1/DTD/svg11.dtd"><svg width="100" height="100" viewBox="0 0 209 209" version="1.1" xmlns="http://www.w3.org/2000/svg" xmlns:xlink="http://www.w3.org/1999/xlink" xml:space="preserve" xmlns:serif="http://www.serif.com/" style="fill-rule:evenodd;clip-rule:evenodd;stroke-linecap:round;stroke-linejoin:round;"><g id="SVGRepo_bgCarrier"><path d="M208.333,104.167c0,-57.491 -46.675,-104.167 -104.166,-104.167c-57.491,0 -104.167,46.676 -104.167,104.167c0,57.491 46.676,104.166 104.167,104.166c57.491,0 104.166,-46.675 104.166,-104.166Z" style="fill:#3155e7;"/></g><g id="SVGRepo_iconCarrier"><g id="Free-Icons"><g id="Group"><g id="Shape"><path d="M80.632,149.952l-26.465,16.715l4.637,-29.287c-11,-10.139 -17.137,-24.223 -17.137,-39.792c-0,-30.885 24.147,-55.921 62.5,-55.921c38.353,-0 62.5,25.036 62.5,55.921c-0,30.884 -24.147,55.921 -62.5,55.921c-8.596,-0 -16.478,-1.258 -23.535,-3.557Z" style="fill:none;stroke:#fff;stroke-width:13.89px;"/><path d="M76.419,90.278c3.836,-0 6.945,3.109 6.945,6.944c-0,3.562 -2.681,6.497 -6.135,6.898l-0.81,0.047c-3.865,-0 -6.975,-3.109 -6.975,-6.945c0,-3.561 2.681,-6.496 6.135,-6.898l0.84,-0.046Z" style="fill:#fff;"/><path d="M104.197,90.278c3.835,-0 6.945,3.109 6.945,6.944c-0,3.562 -2.681,6.497 -6.135,6.898l-0.81,0.047c-3.866,-0 -6.975,-3.109 -6.975,-6.945c0,-3.561 2.681,-6.496 6.135,-6.898l0.84,-0.046Z" style="fill:#fff;"/><path d="M131.975,90.278c3.835,-0 6.944,3.109 6.944,6.944c0,3.562 -2.68,6.497 -6.134,6.898l-0.81,0.047c-3.866,-0 -6.975,-3.109 -6.975,-6.945c0,-3.561 2.681,-6.496 6.135,-6.898l0.84,-0.046Z" style="fill:#fff;"/></g></g></g></g></svg>