<?xml version="1.0" encoding="UTF-8" standalone="no"?><!DOCTYPE svg PUBLIC "-//W3C//DTD SVG 1.1//EN" "http://www.w3.org/Graphics/SVG/1.1/DTD/svg11.dtd"><svg width="100" height="100" viewBox="0 0 209 209" version="1.1" xmlns="http://www.w3.org/2000/svg" xmlns:xlink="http://www.w3.org/1999/xlink" xml:space="preserve" xmlns:serif="http://www.serif.com/" style="fill-rule:evenodd;clip-rule:evenodd;stroke-linejoin:round;stroke-miterlimit:2;"><g id="SVGRepo_bgCarrier"><path d="M208.333,104.167c0,-57.491 -46.675,-104.167 -104.166,-104.167c-57.491,-0 -104.167,46.676 -104.167,104.167c-0,57.491 46.676,104.166 104.167,104.166c57.491,0 104.166,-46.675 104.166,-104.166Z" style="fill:#3155e7;"/></g><g id="SVGRepo_iconCarrier"><g><path d="M165.185,114.856c11.023,0 19.962,-8.932 19.962,-19.956c0,-11.023 -8.939,-19.962 -19.962,-19.962c-11.021,0 -19.96,8.939 -19.96,19.962c0.001,11.024 8.939,19.956 19.96,19.956Z" style="fill:#fff;fill-rule:nonzero;"/><path d="M190.744,134.091c-0.889,-5.344 -5.307,-12.825 -8.651,-16.166c-0.441,-0.443 -2.41,-0.546 -2.941,-0.216c-4.066,2.5 -8.842,3.972 -13.967,3.972c-5.12,0 -9.896,-1.472 -13.962,-3.972c-0.534,-0.33 -2.5,-0.227 -2.94,0.216c-0.935,0.935 -1.955,2.179 -2.95,3.622c2.691,5.066 4.825,10.447 5.595,15.081c0.769,4.646 0.52,9.044 -0.725,13.053c4.421,1.599 9.722,2.301 14.982,2.301c13.717,0 27.755,-4.756 25.559,-17.891Z" style="fill:#fff;fill-rule:nonzero;"/><path d="M103.654,106.435c17.865,0 32.349,-14.484 32.349,-32.349c0,-17.859 -14.484,-32.344 -32.349,-32.344c-17.863,0 -32.342,14.485 -32.342,32.344c0,17.865 14.479,32.349 32.342,32.349Z" style="fill:#fff;fill-rule:nonzero;"/><path d="M131.046,111.39c-0.702,-0.699 -3.89,-0.877 -4.757,-0.341c-6.594,4.058 -14.333,6.433 -22.635,6.433c-8.296,0 -16.039,-2.375 -22.63,-6.433c-0.867,-0.537 -4.054,-0.358 -4.756,0.341c-5.433,5.427 -12.592,17.559 -14.033,26.207c-3.551,21.304 19.204,28.995 41.419,28.995c22.22,0 44.975,-7.691 41.424,-28.995c-1.441,-8.648 -8.6,-20.78 -14.032,-26.207Z" style="fill:#fff;fill-rule:nonzero;"/><path d="M43.148,114.856c11.021,0 19.959,-8.932 19.959,-19.956c0,-11.023 -8.938,-19.962 -19.959,-19.962c-11.024,0 -19.962,8.939 -19.962,19.962c0,11.024 8.938,19.956 19.962,19.956Z" style="fill:#fff;fill-rule:nonzero;"/><path d="M56.388,136.628c0.818,-4.867 3.128,-10.597 6.023,-15.896c-0.807,-1.102 -1.614,-2.063 -2.358,-2.807c-0.441,-0.443 -2.407,-0.546 -2.941,-0.216c-4.066,2.5 -8.842,3.972 -13.964,3.972c-5.123,0 -9.902,-1.472 -13.964,-3.972c-0.532,-0.33 -2.503,-0.227 -2.944,0.216c-3.352,3.341 -7.759,10.822 -8.651,16.166c-2.194,13.135 11.842,17.891 25.559,17.891c4.895,0 9.839,-0.603 14.058,-1.98c-1.329,-4.091 -1.611,-8.592 -0.818,-13.374Z" style="fill:#fff;fill-rule:nonzero;"/></g></g></svg>